<svg xmlns="http://www.w3.org/2000/svg" viewBox="20 30 82 62" fill="none" aria-hidden="true">
  <path d="M39 73c3-18 15-30 28-30s25 12 28 30" fill="#ffe8e4"/>
  <path d="M39 73c3-18 15-30 28-30s25 12 28 30M36 76h62M47 85h40M67 43v-9M60 34h14" stroke="#ad6766" stroke-width="2.5" stroke-linecap="round" stroke-linejoin="round"/>
  <path d="M30 33v55M23 33v22c0 8 14 8 14 0V33" stroke="#ad6766" stroke-width="2.4" stroke-linecap="round" stroke-linejoin="round"/>
  <path d="M91 33c-9 14-11 30-6 42 2 5 5 7 10 7v7" stroke="#ad6766" stroke-width="2.4" stroke-linecap="round" stroke-linejoin="round"/>
</svg>
