<svg xmlns="http://www.w3.org/2000/svg" viewBox="0 0 112 112" fill="none" aria-hidden="true">
  <path d="M72 18c-23 7-40 28-40 52 0 20 12 36 30 42-8-9-12-20-12-32 0-22 14-42 35-49-5-5-9-9-13-13z" fill="#ffe8e4" stroke="#ad6766" stroke-width="3" stroke-linejoin="round"/>
  <path d="M81.5 18.5l3.1 7.9 7.9 3.1-7.9 3.1-3.1 7.9-3.1-7.9-7.9-3.1 7.9-3.1z" fill="#fff8f3" stroke="#ad6766" stroke-width="2.3" stroke-linejoin="round"/>
  <path d="M32 24l2.2 5.8L40 32l-5.8 2.2L32 40l-2.2-5.8L24 32l5.8-2.2z" fill="#fff8f3" stroke="#ad6766" stroke-width="2" stroke-linejoin="round"/>
  <path d="M84 72l2 5 5 2-5 2-2 5-2-5-5-2 5-2z" fill="#fff8f3" stroke="#ad6766" stroke-width="2" stroke-linejoin="round"/>
</svg>
