<?xml version="1.0" encoding="iso-8859-1"?>
<svg xmlns="http://www.w3.org/2000/svg" xmlns:xlink="http://www.w3.org/1999/xlink" version="1.1" id="Layer_1" x="0px" y="0px" viewBox="0 0 511.999 511.999" style="enable-background:new 0 0 511.999 511.999;" xml:space="preserve">
<g>
	<polygon style="fill:#ffe8e4;" points="119.607,10.04 142.908,26.41 169.103,15.243 160.734,42.462 179.45,63.925 150.977,64.376    136.349,88.809 127.12,61.869 99.364,55.507 122.133,38.405  "/>
	<polygon style="fill:#ffe8e4;" points="330.548,375.401 307.247,359.032 281.052,370.199 289.42,342.98 270.703,321.517    299.177,321.066 313.805,296.633 323.033,323.573 350.791,329.935 328.021,347.037  "/>
	<polygon style="fill:#ffe8e4;" points="330.548,10.04 328.021,38.405 350.791,55.507 323.033,61.869 313.805,88.809    299.177,64.376 270.703,63.925 289.42,42.462 281.052,15.243 307.247,26.41  "/>
	<polygon style="fill:#ffe8e4;" points="119.607,375.401 122.133,347.037 99.364,329.935 127.12,323.573 136.349,296.633    150.977,321.066 179.45,321.517 160.734,342.98 169.103,370.199 142.908,359.032  "/>
	<polygon style="fill:#ffe8e4;" points="436.018,192.721 410.191,204.715 406.765,232.985 387.376,212.128 359.431,217.606    373.276,192.721 359.431,167.837 387.376,173.314 406.765,152.457 410.191,180.727  "/>
	<polygon style="fill:#ffe8e4;" points="14.136,192.721 39.963,180.727 43.39,152.457 62.777,173.314 90.722,167.837    76.877,192.721 90.722,217.606 62.777,212.128 43.39,232.985 39.963,204.715  "/>
</g>
<g>
	<path style="fill:#ad6766;" d="M225.077,276.548c-5.545,0-10.039,4.495-10.039,10.039v84.684c0,5.545,4.495,10.039,10.039,10.039   c5.545,0,10.039-4.495,10.039-10.039v-84.684C235.116,281.042,230.622,276.548,225.077,276.548z"/>
	<path style="fill:#ad6766;" d="M225.077,108.894c5.545,0,10.039-4.495,10.039-10.039V14.171c0-5.545-4.495-10.039-10.039-10.039   c-5.545,0-10.039,4.495-10.039,10.039v84.684C215.038,104.399,219.533,108.894,225.077,108.894z"/>
	<path style="fill:#ad6766;" d="M152.48,234.634c-2.772-4.802-8.913-6.447-13.713-3.674l-73.338,42.342   c-4.802,2.772-6.447,8.912-3.674,13.714c1.859,3.221,5.233,5.021,8.703,5.021c1.703,0,3.429-0.434,5.011-1.346l73.338-42.342   C153.608,245.576,155.253,239.436,152.48,234.634z"/>
	<path style="fill:#ad6766;" d="M297.673,150.807c1.859,3.221,5.233,5.021,8.703,5.021c1.703,0,3.429-0.434,5.011-1.346   l73.338-42.342c4.802-2.772,6.447-8.912,3.674-13.713c-2.773-4.803-8.913-6.448-13.714-3.674l-73.338,42.342   C296.547,139.866,294.902,146.006,297.673,150.807z"/>
	<path style="fill:#ad6766;" d="M384.726,273.302l-91.242-52.678c-4.801-2.771-10.941-1.127-13.714,3.674   c-2.773,4.802-1.127,10.942,3.674,13.714l91.242,52.678c1.581,0.913,3.307,1.346,5.011,1.346c3.47,0,6.844-1.8,8.703-5.021   C391.173,282.214,389.527,276.074,384.726,273.302z"/>
	<path style="fill:#ad6766;" d="M265.175,215.875c2.774-4.801,1.13-10.941-3.67-13.714l-0.48-0.277   c-4.802-2.775-10.942-1.13-13.715,3.67c-2.774,4.801-1.13,10.941,3.67,13.714l0.48,0.277c1.582,0.915,3.308,1.348,5.013,1.348   C259.941,220.894,263.315,219.094,265.175,215.875z"/>
	<path style="fill:#ad6766;" d="M65.429,112.14l123.703,71.42c1.581,0.913,3.307,1.346,5.011,1.346c3.47,0,6.844-1.8,8.703-5.021   c2.773-4.802,1.127-10.942-3.674-13.714L75.468,94.752c-4.803-2.772-10.942-1.128-13.713,3.674   C58.981,103.229,60.627,109.368,65.429,112.14z"/>
	<path style="fill:#ad6766;" d="M97.12,65.292l22.313,5.115l7.419,21.655c1.267,3.696,4.562,6.323,8.448,6.731   c0.352,0.037,0.703,0.055,1.052,0.055c3.503,0,6.785-1.834,8.611-4.882l5.858-9.783l18.63,32.268   c1.859,3.221,5.233,5.021,8.703,5.021c1.703,0,3.429-0.434,5.011-1.346c4.802-2.772,6.447-8.912,3.674-13.713l-18.63-32.268   l11.401-0.181c3.907-0.062,7.423-2.384,9.012-5.954s0.963-7.737-1.605-10.682l-15.045-17.253l6.727-21.88   c1.148-3.735,0.025-7.796-2.878-10.412c-2.904-2.614-7.06-3.305-10.655-1.774l-21.057,8.977l-18.732-13.16   c-3.197-2.247-7.407-2.434-10.791-0.48c-3.384,1.954-5.327,5.693-4.979,9.584l2.031,22.801L93.334,47.479   c-3.124,2.346-4.603,6.293-3.791,10.114C90.356,61.416,93.312,64.419,97.12,65.292z M128.162,46.431   c2.777-2.085,4.279-5.458,3.97-8.918l-0.608-6.832l5.612,3.943c2.841,1.997,6.513,2.382,9.708,1.02l6.31-2.689l-2.016,6.556   c-1.021,3.32-0.253,6.931,2.03,9.548l4.508,5.169l-6.858,0.108c-3.473,0.055-6.67,1.901-8.454,4.881l-3.524,5.885l-2.223-6.488   c-1.125-3.286-3.869-5.755-7.254-6.531l-6.686-1.532L128.162,46.431z"/>
	<path style="fill:#ad6766;" d="M353.033,320.15l-22.313-5.115l-7.419-21.655c-1.267-3.696-4.562-6.323-8.448-6.731   c-3.89-0.408-7.656,1.475-9.663,4.828l-5.858,9.783l-18.63-32.268c-2.773-4.803-8.913-6.447-13.714-3.674   c-4.802,2.772-6.447,8.912-3.674,13.713l18.63,32.268l-11.401,0.181c-3.907,0.062-7.423,2.384-9.012,5.954   c-1.589,3.57-0.963,7.737,1.605,10.682l15.045,17.253l-6.727,21.88c-1.148,3.735-0.025,7.796,2.878,10.412   c2.904,2.614,7.062,3.307,10.655,1.774l21.057-8.977l18.731,13.159c1.726,1.213,3.746,1.824,5.772,1.824   c1.729,0,3.461-0.446,5.02-1.345c3.384-1.954,5.327-5.693,4.979-9.584l-2.031-22.801l18.303-13.748   c3.124-2.346,4.603-6.293,3.791-10.114C359.798,324.026,356.842,321.023,353.033,320.15z M321.992,339.011   c-2.777,2.085-4.279,5.458-3.97,8.918l0.608,6.832l-5.612-3.943c-1.717-1.207-3.738-1.824-5.773-1.824   c-1.333,0-2.672,0.265-3.936,0.804l-6.31,2.689l2.016-6.556c1.021-3.32,0.253-6.931-2.03-9.548l-4.508-5.169l6.858-0.109   c3.473-0.055,6.67-1.901,8.454-4.881l3.524-5.885l2.223,6.489c1.125,3.286,3.869,5.755,7.254,6.531l6.686,1.532L321.992,339.011z"/>
	<path style="fill:#ad6766;" d="M251.626,166.815l47.708-82.632l5.858,9.783c1.825,3.049,5.108,4.882,8.611,4.882   c0.349,0,0.7-0.018,1.052-0.055c3.886-0.409,7.181-3.034,8.448-6.731l7.419-21.655l22.313-5.115   c3.808-0.873,6.764-3.876,7.577-7.698c0.813-3.822-0.667-7.768-3.791-10.114l-18.304-13.747l2.031-22.801   c0.346-3.891-1.596-7.632-4.979-9.584c-3.382-1.954-7.594-1.766-10.791,0.48l-18.731,13.159l-21.057-8.977   c-3.595-1.532-7.751-0.839-10.655,1.774c-2.903,2.614-4.027,6.676-2.878,10.412l6.727,21.88l-15.045,17.253   c-2.568,2.944-3.194,7.112-1.605,10.682c1.589,3.57,5.105,5.893,9.012,5.954l11.401,0.181l-47.708,82.632   c-2.773,4.802-1.127,10.942,3.674,13.713c1.581,0.913,3.307,1.346,5.011,1.346C246.392,171.835,249.767,170.035,251.626,166.815z    M296.986,49.061c2.283-2.617,3.051-6.229,2.03-9.548L297,32.957l6.31,2.689c3.195,1.363,6.868,0.976,9.708-1.02l5.612-3.943   l-0.608,6.832c-0.308,3.459,1.194,6.833,3.97,8.918l5.484,4.12l-6.686,1.532c-3.385,0.776-6.129,3.246-7.254,6.531l-2.222,6.488   l-3.524-5.885c-1.784-2.98-4.981-4.826-8.454-4.881l-6.858-0.108L296.986,49.061z"/>
	<path style="fill:#ad6766;" d="M179.61,311.48l-11.401-0.181l47.708-82.632c2.773-4.802,1.127-10.942-3.674-13.713   c-4.8-2.771-10.941-1.126-13.713,3.674l-47.708,82.632l-5.858-9.783c-2.007-3.352-5.777-5.234-9.663-4.828   c-3.886,0.409-7.181,3.034-8.448,6.731l-7.419,21.655l-22.313,5.115c-3.808,0.873-6.764,3.876-7.577,7.698   c-0.813,3.822,0.667,7.768,3.791,10.114l18.303,13.748l-2.031,22.801c-0.346,3.891,1.596,7.632,4.979,9.584   c1.558,0.9,3.29,1.345,5.02,1.345c2.026,0,4.047-0.612,5.772-1.824l18.731-13.159l21.057,8.977   c3.594,1.532,7.751,0.84,10.655-1.774s4.027-6.676,2.878-10.412l-6.727-21.88l15.045-17.253c2.568-2.944,3.194-7.112,1.605-10.682   C187.032,313.864,183.516,311.542,179.61,311.48z M153.168,336.382c-2.283,2.617-3.051,6.228-2.03,9.548l2.016,6.556l-6.31-2.689   c-3.194-1.362-6.867-0.977-9.708,1.02l-5.612,3.943l0.608-6.832c0.308-3.46-1.194-6.833-3.97-8.918l-5.484-4.12l6.686-1.532   c3.385-0.776,6.129-3.246,7.254-6.531l2.223-6.489l3.524,5.885c1.784,2.98,4.981,4.826,8.454,4.881l6.858,0.109L153.168,336.382z"/>
	<path style="fill:#ad6766;" d="M361.363,157.984c-3.833-0.748-7.756,0.79-10.053,3.951c-2.297,3.161-2.551,7.368-0.651,10.782   l5.545,9.965h-37.26c-5.545,0-10.039,4.495-10.039,10.039s4.495,10.039,10.039,10.039h37.259l-5.545,9.965   c-1.899,3.414-1.645,7.621,0.651,10.782c2.296,3.161,6.216,4.704,10.053,3.95l22.464-4.403l15.585,16.766   c1.931,2.077,4.609,3.205,7.355,3.205c1.036,0,2.082-0.161,3.101-0.492c3.715-1.208,6.394-4.461,6.864-8.341l2.754-22.725   l20.762-9.642c3.544-1.645,5.811-5.198,5.811-9.105s-2.267-7.46-5.811-9.106l-20.762-9.642l-2.754-22.725   c-0.47-3.879-3.148-7.132-6.864-8.341c-3.717-1.208-7.795-0.148-10.456,2.713l-15.585,16.766L361.363,157.984z M394.729,180.149   l4.669-5.024l0.825,6.81c0.418,3.447,2.588,6.435,5.737,7.898l6.22,2.888l-6.22,2.888c-3.15,1.463-5.32,4.45-5.737,7.898   l-0.825,6.809l-4.669-5.024c-1.918-2.064-4.592-3.203-7.353-3.203c-0.642,0-1.289,0.061-1.932,0.188l-6.73,1.319l3.335-5.993   c1.689-3.035,1.689-6.727,0-9.762l-3.335-5.994l6.731,1.319C388.851,183.834,392.365,182.693,394.729,180.149z"/>
	<path style="fill:#ad6766;" d="M88.791,227.457c3.835,0.752,7.756-0.789,10.053-3.95s2.551-7.368,0.651-10.782l-5.545-9.965h37.261   c5.545,0,10.039-4.495,10.039-10.039c0-5.545-4.495-10.039-10.039-10.039h-37.26l5.545-9.965c1.899-3.414,1.645-7.621-0.651-10.782   c-2.297-3.16-6.216-4.701-10.053-3.951l-22.464,4.403L50.743,145.62c-2.659-2.862-6.737-3.921-10.456-2.713   c-3.715,1.208-6.394,4.461-6.864,8.341l-2.754,22.725l-20.762,9.642c-3.544,1.645-5.811,5.198-5.811,9.106   c0,3.907,2.267,7.46,5.811,9.106l20.762,9.642l2.754,22.725c0.47,3.879,3.148,7.133,6.864,8.341   c1.019,0.331,2.065,0.492,3.101,0.492c2.745,0,5.423-1.127,7.355-3.204l15.585-16.766L88.791,227.457z M55.425,205.293   l-4.669,5.024l-0.825-6.809c-0.418-3.447-2.588-6.435-5.737-7.898l-6.22-2.888l6.22-2.888c3.15-1.463,5.32-4.45,5.737-7.898   l0.825-6.81l4.669,5.024c2.364,2.544,5.878,3.684,9.284,3.017l6.731-1.319l-3.335,5.994c-1.689,3.035-1.689,6.727,0,9.762   l3.335,5.993l-6.73-1.319C61.302,201.608,57.79,202.749,55.425,205.293z"/>
	<path style="fill:#ad6766;" d="M441.543,323.084c11.482,10.605,22.394,23.763,32.436,39.106c1.927,2.943,5.136,4.543,8.409,4.543   c1.885,0,3.793-0.53,5.488-1.64c4.639-3.036,5.939-9.258,2.902-13.897c-10.942-16.718-22.922-31.138-35.612-42.859   c-4.072-3.763-10.425-3.511-14.186,0.563C437.218,312.971,437.47,319.323,441.543,323.084z"/>
	<path style="fill:#ad6766;" d="M507.681,499.872c-1.096-5.158-27.614-126.864-94.406-172.983   c-4.564-3.151-10.815-2.006-13.965,2.557c-3.15,4.563-2.006,10.815,2.557,13.965c60.203,41.568,85.923,159.451,86.176,160.637   c1.004,4.718,5.17,7.951,9.809,7.951c0.691,0,1.393-0.071,2.096-0.221C505.371,510.627,508.833,505.296,507.681,499.872z"/>
</g>
<g>
</g>
<g>
</g>
<g>
</g>
<g>
</g>
<g>
</g>
<g>
</g>
<g>
</g>
<g>
</g>
<g>
</g>
<g>
</g>
<g>
</g>
<g>
</g>
<g>
</g>
<g>
</g>
<g>
</g>
</svg>
