<svg width="451" height="318" viewBox="0 0 451 318" fill="none" xmlns="http://www.w3.org/2000/svg">
<path d="M179.166 244.055C286.519 276.481 399.49 226.801 450.425 131.315L446.998 130.28C396.669 223.918 285.675 272.558 180.182 240.694C109.452 219.33 56.7012 166.472 32.6066 102.053C13.4323 58.5561 15.6772 -4.8325e-06 15.6772 -4.8325e-06C5.23502 107.717 71.8009 211.625 179.166 244.055Z" fill="#C3937C"/>
<path d="M440.625 138.018C431.836 156.72 408.182 171.118 388.052 173.775C375.549 175.421 362.837 172.734 350.699 169.904C338.85 167.109 327.172 163.63 315.724 159.485C313.951 158.845 313.112 161.645 314.879 162.282C328.114 167.081 341.658 170.978 355.419 173.947C367.001 176.423 379.022 178.314 390.821 176.304C410.933 172.812 434.234 158.446 443.087 139.598C443.878 137.916 441.417 136.331 440.617 138.043L440.625 138.018Z" fill="#C3937C"/>
<path d="M441.456 136.066C417.9 127.701 392.155 123.571 367.347 128.331C346.512 132.322 328.099 143.413 313.953 159.088C312.705 160.479 314.684 162.631 315.948 161.231C329.788 145.864 347.63 135.084 368.034 131.177C392.336 126.513 417.541 130.673 440.611 138.863C442.386 139.496 443.226 136.69 441.456 136.066Z" fill="#C3937C"/>
<path d="M439.555 138.337C412.62 163.686 373.875 172.58 337.915 166.767C336.633 166.56 336.007 168.519 337.323 168.73C374.006 174.657 413.44 165.723 440.952 139.836C441.15 139.651 441.267 139.394 441.277 139.123C441.287 138.851 441.188 138.586 441.003 138.388C440.818 138.189 440.561 138.072 440.29 138.062C440.018 138.053 439.754 138.152 439.555 138.337Z" fill="#C3937C"/>
<path d="M439.191 136.528L380.88 152.656C371.455 155.259 362.027 157.964 352.594 160.454C342.096 163.23 330.868 165.316 320.74 160.102C319.545 159.492 318.48 161.235 319.648 161.844C336.697 170.62 357.803 161.164 374.749 156.482L439.672 138.524C440.936 138.174 440.469 136.182 439.189 136.534L439.191 136.528Z" fill="#C3937C"/>
<path d="M437.446 137.141C414.782 126.351 386.434 129.765 363.472 137.942C354.889 141 346.633 145.102 338.287 148.749C330.435 152.172 321.958 155.2 314.646 159.718C313.533 160.411 314.491 162.22 315.618 161.525C322.144 157.487 329.679 154.721 336.678 151.675C344.263 148.358 351.776 144.749 359.447 141.651C382.763 132.234 412.883 127.705 436.356 138.877C437.532 139.439 438.635 137.707 437.448 137.135L437.446 137.141Z" fill="#C3937C"/>
<path d="M437.31 135.242C416.987 133.489 395.527 135.848 376.341 142.921C357.155 149.993 337.869 161.691 316.591 159.836C315.248 159.714 315.227 161.772 316.536 161.892C336.186 163.586 354.326 153.898 372.019 146.789C392.734 138.585 415.075 135.335 437.261 137.299C438.572 137.412 438.619 135.361 437.316 135.244L437.31 135.242Z" fill="#C3937C"/>
<path d="M438.172 154.545C440.75 178.27 440.599 202.215 437.723 225.91C436.191 238.453 433.692 251.042 425.413 261.023C418.11 269.826 408.159 275.841 398.474 281.681C396.869 282.653 398.241 285.237 399.854 284.26C409.525 278.423 419.453 272.394 426.926 263.759C434.655 254.821 437.988 243.879 439.762 232.41C443.779 206.5 443.775 179.9 440.975 153.878C440.772 152.015 437.926 152.709 438.125 154.565L438.172 154.545Z" fill="#C3937C"/>
<path d="M399.8 282.931C402.294 258.819 402.622 234.295 407.296 210.462C411.273 190.189 420.763 167.086 440.681 157.865C442.397 157.071 441.005 154.509 439.3 155.286C420.177 164.139 409.946 185.63 405.45 205.152C399.599 230.529 399.552 257.024 396.882 282.837C396.69 284.706 399.616 284.775 399.808 282.906L399.8 282.931Z" fill="#C3937C"/>
<path d="M437.361 158.872C434.619 198.014 422.968 234.141 399.53 265.845C398.747 266.907 400.483 267.99 401.27 266.937C424.914 234.964 436.656 198.395 439.415 158.926C439.508 157.614 437.46 157.562 437.361 158.872Z" fill="#C3937C"/>
<path d="M438.621 156.849C436.418 183.563 435.218 210.628 428.926 236.804C426.913 245.447 423.162 253.59 417.903 260.736C412.817 267.841 406.954 275.671 399.56 280.551C398.466 281.271 399.428 283.088 400.526 282.356C407.214 277.939 412.537 271.258 417.346 264.933C422.831 257.715 427.512 250.35 429.841 241.543C437.134 213.97 438.33 185.204 440.667 156.908C440.784 155.561 438.725 155.547 438.611 156.86L438.621 156.849Z" fill="#C3937C"/>
<path d="M436.363 160.214C421.015 191.108 406.058 223.266 399.81 257.427C399.567 258.734 401.527 259.327 401.77 258.019C407.985 224.035 422.826 192.035 438.097 161.305C438.688 160.102 436.953 159.039 436.357 160.212L436.363 160.214Z" fill="#C3937C"/>
<path d="M381.518 211.33C376.13 242.165 361.115 282.373 329.026 294.244C327.28 294.884 327.967 297.751 329.706 297.088C362.897 284.811 378.714 244.258 384.332 212.18C384.65 210.349 381.857 209.478 381.531 211.334L381.518 211.33Z" fill="#C3937C"/>
<path d="M331.137 294.861C333.385 278.243 339.156 262.295 348.063 248.087C356.969 233.879 368.805 221.738 382.779 212.477C384.34 211.443 382.968 208.86 381.398 209.899C366.987 219.425 354.782 231.932 345.607 246.577C336.432 261.221 330.5 277.663 328.211 294.793C327.965 296.659 330.892 296.721 331.137 294.861Z" fill="#C3937C"/>
<path d="M378.207 214.889C369.069 244.412 357.465 274.675 329.985 291.778C328.869 292.477 329.827 294.286 330.951 293.582C358.914 276.183 370.859 245.546 380.168 215.481C380.246 215.22 380.218 214.94 380.09 214.7C379.962 214.461 379.744 214.282 379.484 214.204C379.224 214.125 378.943 214.153 378.704 214.282C378.465 214.41 378.286 214.628 378.207 214.889Z" fill="#C3937C"/>
<path d="M376.489 215.986C364.226 236.094 350.166 255.048 334.482 272.616C333.607 273.595 334.995 275.098 335.872 274.113C351.681 256.426 365.853 237.338 378.212 217.086C378.904 215.962 377.172 214.866 376.474 215.988L376.489 215.986Z" fill="#C3937C"/>
<path d="M376.487 216.199C372.34 228.83 366.042 240.796 359.3 252.222C352.47 263.8 344.792 277.408 332.215 283.41C331.021 283.982 331.995 285.782 333.181 285.215C345.601 279.297 353.299 266.24 360.136 254.843C367.338 242.832 374.058 230.157 378.433 216.815C378.847 215.558 376.918 214.976 376.479 216.224L376.487 216.199Z" fill="#C3937C"/>
<path d="M388.909 198.077C372.357 210.658 352.288 217.74 331.518 218.33C320.895 218.616 310.627 216.93 300.402 214.139C289.993 211.299 279.757 208.179 268.841 208.75C266.975 208.877 266.883 211.785 268.771 211.678C281.986 210.966 294.134 215.886 306.798 218.778C316.643 221.027 326.774 221.758 336.841 220.946C356.471 219.354 375.234 212.155 390.901 200.205C392.399 199.062 390.4 196.932 388.914 198.058L388.909 198.077Z" fill="#C3937C"/>
<path d="M388.431 197.601C367.955 190.214 346.31 182.516 324.185 184.812C303.902 186.926 284.661 195.529 268.84 208.252C267.366 209.431 269.37 211.569 270.829 210.394C286.575 197.737 306.218 189.014 326.504 187.53C347.586 185.989 368.079 193.367 387.586 200.399C389.36 201.038 390.198 198.238 388.431 197.601Z" fill="#C3937C"/>
<path d="M385.965 197.588C350.426 204.273 312.139 211.282 276.2 204.08C274.899 203.818 274.306 205.78 275.607 206.042C311.938 213.32 350.54 206.338 386.441 199.576C387.736 199.332 387.26 197.344 385.965 197.588Z" fill="#C3937C"/>
<path d="M387.804 199.29C375.206 207.075 358.07 208.64 343.602 210.349C328.396 212.151 313.087 212.942 297.784 213.397C296.475 213.436 296.415 215.484 297.735 215.454C313.214 214.991 328.697 214.169 344.077 212.343C358.746 210.606 375.949 209.026 388.774 201.103C389.886 200.416 388.928 198.608 387.802 199.297L387.804 199.29Z" fill="#C3937C"/>
<path d="M382.75 196.811C349.201 192.293 315.306 201.85 281.607 199.656C280.294 199.57 280.241 201.619 281.552 201.711C315.257 203.907 349.152 194.35 382.695 198.866C384.019 199.052 384.04 196.993 382.75 196.811Z" fill="#C3937C"/>
<path d="M362.088 190.473C341.153 191.892 320.129 191.344 299.164 191.214C297.85 191.204 297.79 193.251 299.109 193.269C320.084 193.388 341.098 193.948 362.033 192.528C363.336 192.439 363.371 190.384 362.088 190.473Z" fill="#C3937C"/>
<path d="M322.553 241.385C319.685 258.304 312.772 274.886 303.344 289.195C293.86 303.597 276.871 309.427 261.091 314.11C259.295 314.644 259.966 317.493 261.777 316.955C277.041 312.428 293.715 306.841 303.771 293.675C314.805 279.236 322.336 260.037 325.354 242.231C325.66 240.396 322.865 239.531 322.553 241.385Z" fill="#C3937C"/>
<path d="M322.975 240.034C313.893 244.972 303.619 247.235 294.775 252.645C288.736 256.377 283.377 261.111 278.926 266.645C267.666 280.511 262.298 298.008 259.656 315.389C259.372 317.244 262.299 317.306 262.58 315.464C265.201 298.242 270.69 280.685 282.197 267.239C286.878 261.716 292.535 257.103 298.886 253.631C307.064 249.194 316.191 247.026 324.363 242.588C326.01 241.704 324.641 239.108 322.982 240.009L322.975 240.034Z" fill="#C3937C"/>
<path d="M258.987 251.38C245.634 265.457 231.313 280.547 212.384 286.744C192.213 293.354 170.862 287.927 151.438 281.417C149.653 280.816 148.807 283.62 150.591 284.221C170.473 290.883 192.433 296.328 213.062 289.594C232.538 283.231 247.237 268.007 260.974 253.528C262.269 252.165 260.284 250.011 258.987 251.38Z" fill="#C3937C"/>
<path d="M259.489 250.655C221.06 248.862 181.766 258.84 150.239 281.276C148.725 282.359 150.09 284.947 151.618 283.861C182.778 261.681 221.433 251.807 259.435 253.574C261.312 253.665 261.397 250.713 259.506 250.646L259.489 250.655Z" fill="#C3937C"/>
<path d="M298.049 244.136C275.727 248.363 247.939 243.277 230.274 228.431C223.794 223.02 218.925 216.024 213.303 209.76C205.993 201.745 197.346 195.064 187.747 190.016C186.095 189.137 184.509 191.601 186.185 192.494C196.721 198.109 206.096 205.675 213.812 214.79C219.69 221.67 225.168 228.774 232.709 233.939C251.166 246.594 276.889 251.117 298.737 246.976C300.582 246.622 299.903 243.778 298.053 244.124L298.049 244.136Z" fill="#C3937C"/>
<path d="M301.3 243.813C299.052 238.12 293.104 233.553 288.573 229.774C279.464 222.282 269.695 215.632 259.385 209.907C237.969 197.816 212.549 186.899 187.427 189.022C185.579 189.154 185.474 192.106 187.357 191.95C211.964 189.864 236.848 200.544 257.822 212.384C267.303 217.662 276.337 223.706 284.835 230.455C289.643 234.318 296.359 239.199 298.72 245.182C299.413 246.931 301.981 245.532 301.297 243.799L301.3 243.813Z" fill="#C3937C"/>
<path d="M184.908 243.323C145.891 267.848 99.2142 251.283 63.5074 229.033C61.9037 228.037 60.3476 230.516 61.945 231.51C98.5301 254.302 146.412 270.968 186.289 245.902C187.88 244.905 186.508 242.321 184.908 243.323Z" fill="#C3937C"/>
<path d="M185.791 243.459C162.729 233.917 138.66 226.867 114.506 220.69C96.7651 216.147 76.2689 215.496 61.7058 228.599C60.3036 229.861 62.2927 232.002 63.695 230.74C79.8949 216.169 101.934 220.257 120.866 225.423C142.578 231.346 164.096 237.638 184.95 246.264C186.693 246.984 187.527 244.176 185.797 243.46L185.791 243.459Z" fill="#C3937C"/>
<path d="M209.431 246.151C207.386 209.382 170.944 192.034 140.732 181.196C138.958 180.557 138.118 183.363 139.887 183.994C168.653 194.319 204.523 210.797 206.493 246.079C206.619 247.947 209.518 248.035 209.412 246.145L209.431 246.151Z" fill="#C3937C"/>
<path d="M208.142 245.278C188.781 237.42 169.279 226.923 157.088 209.35C150.989 200.553 147.627 189.916 140.579 181.771C139.339 180.347 137.205 182.341 138.438 183.763C146.018 192.476 149.479 204.137 156.407 213.365C169.017 230.166 188.21 240.315 207.278 248.07C209.018 248.775 209.85 245.974 208.123 245.272L208.142 245.278Z" fill="#C3937C"/>
<path d="M104.617 202.032C93.2082 202.454 81.4512 202.908 70.3449 199.816C62.796 197.716 57.4651 194.075 51.6485 189.141C41.5782 180.608 32.2196 171.226 21.784 163.081C20.2933 161.94 18.7537 164.41 20.2216 165.558C31.5143 174.384 41.554 184.731 52.671 193.773C67.4045 205.759 86.4053 205.627 104.547 204.96C106.415 204.896 106.506 201.967 104.617 202.032Z" fill="#C3937C"/>
<path d="M104.898 201.032C81.7465 180.063 52.7426 166.678 21.7701 162.669C19.9097 162.432 19.8458 165.362 21.6998 165.597C51.8964 169.535 80.1717 182.591 102.758 203.024C104.145 204.279 106.296 202.297 104.898 201.032Z" fill="#C3937C"/>
<path d="M124.807 214.16C125.188 191.973 129.273 157.981 104.608 146.255C102.924 145.457 101.344 147.922 103.045 148.733C126.62 159.935 122.249 192.818 121.881 214.091C121.853 215.968 124.774 216.05 124.807 214.16Z" fill="#C3937C"/>
<path d="M123.815 213.218C108.161 196.237 100.491 171.169 105.103 148.387C105.475 146.559 102.68 145.694 102.301 147.541C97.4876 171.359 105.273 197.416 121.675 215.21C122.953 216.598 125.093 214.606 123.815 213.218Z" fill="#C3937C"/>
<path d="M75.1739 170.808C81.0578 151.154 80.8543 130.181 74.5901 110.652C74.0175 108.87 71.1669 109.535 71.7401 111.338C77.8809 130.36 78.0993 150.804 72.3664 169.96C71.8216 171.764 74.629 172.612 75.1675 170.806L75.1739 170.808Z" fill="#C3937C"/>
<path d="M73.4189 168.531C59.367 151.798 59.5406 128.243 73.4163 111.43C74.6147 109.975 72.1264 108.436 70.942 109.868C63.8346 118.392 59.9674 129.155 60.0243 140.255C60.0813 151.354 64.0588 162.073 71.2533 170.515C72.4726 171.961 74.6087 169.961 73.4001 168.525L73.4189 168.531Z" fill="#C3937C"/>
<path d="M50.1147 144.121C31.0621 141.888 12.9482 130.677 2.80056 114.337C1.81319 112.74 -0.768832 114.116 0.222968 115.721C10.9596 133.012 29.8793 144.708 50.0446 147.049C51.9107 147.267 51.9745 144.337 50.1147 144.121Z" fill="#C3937C"/>
<path d="M51.1086 143.185C45.4754 135.097 38.2052 128.286 29.77 123.194C21.3348 118.102 11.9231 114.843 2.14568 113.628C0.285365 113.391 0.221416 116.321 2.07542 116.556C11.3433 117.727 20.2632 120.824 28.2633 125.648C36.2633 130.471 43.1669 136.916 48.5311 144.568C49.6022 146.093 52.1904 144.72 51.1086 143.185Z" fill="#C3937C"/>
<path d="M38.8719 114.092C45.009 98.9818 47.0864 81.5959 39.899 66.4882C39.0884 64.786 36.5464 66.1663 37.3216 67.8716C44.1758 82.2777 41.9032 98.8932 36.0708 113.246C35.3654 114.987 38.1684 115.827 38.8719 114.092Z" fill="#C3937C"/>
<path d="M38.3803 112.955C31.4695 99.2849 31.0854 81.9843 39.3771 68.81C40.3835 67.2146 37.9071 65.6585 36.9091 67.2496C28.0466 81.3082 28.4333 99.7422 35.7963 114.337C36.6652 116.029 39.2175 114.638 38.3739 112.953L38.3803 112.955Z" fill="#C3937C"/>
<path d="M321.424 243.295C302.872 267.28 283.065 290.267 262.088 312.159C261.18 313.107 262.568 314.611 263.478 313.656C284.566 291.63 304.476 268.504 323.126 244.376C323.931 243.334 322.195 242.251 321.386 243.284L321.424 243.295Z" fill="#C3937C"/>
<path d="M322.301 242.814C314.916 255.454 307.781 268.294 299.93 280.649C292.619 292.151 283.044 307.769 269.032 311.487C267.766 311.795 268.23 313.821 269.506 313.481C282.311 310.083 291.153 297.392 298.206 286.994C307.6 273.164 315.594 258.325 324.028 243.903C324.696 242.764 322.965 241.668 322.288 242.811L322.301 242.814Z" fill="#C3937C"/>
<path d="M319.316 248.447C314.54 269.535 300.21 286.459 288.114 303.775C287.359 304.859 289.093 305.949 289.853 304.873C302.067 287.393 316.47 270.318 321.283 249.041C321.576 247.748 319.616 247.156 319.329 248.451L319.316 248.447Z" fill="#C3937C"/>
<path d="M319.668 243.124C297.753 261.175 278.261 281.986 261.678 305.039C260.908 306.104 262.648 307.196 263.418 306.13C279.906 283.237 299.281 262.572 321.063 244.651C322.082 243.812 320.686 242.313 319.666 243.151L319.668 243.124Z" fill="#C3937C"/>
<path d="M314.019 246.018C297.332 254.992 282.507 267.069 270.338 281.601C269.505 282.6 270.891 284.11 271.735 283.101C283.781 268.693 298.463 256.718 314.994 247.818C315.112 247.754 315.217 247.668 315.302 247.563C315.387 247.459 315.451 247.338 315.49 247.209C315.528 247.08 315.541 246.945 315.528 246.811C315.514 246.677 315.474 246.547 315.41 246.428C315.346 246.309 315.26 246.205 315.155 246.119C315.051 246.034 314.931 245.971 314.802 245.932C314.673 245.893 314.538 245.881 314.404 245.894C314.27 245.908 314.14 245.948 314.021 246.012L314.019 246.018Z" fill="#C3937C"/>
<path d="M255.712 251.144C239.628 257.862 223.569 264.657 207.438 271.277C192.063 277.588 174.271 286.304 157.227 283.635C155.911 283.424 155.889 285.483 157.178 285.693C173.345 288.228 189.754 280.641 204.404 274.719C221.908 267.664 239.266 260.225 256.681 252.963C257.897 252.453 256.917 250.652 255.71 251.151L255.712 251.144Z" fill="#C3937C"/>
<path d="M247.871 254.053C235.717 259.339 224.125 265.839 213.273 273.454C202.064 281.348 190.072 290.393 175.507 288.404C174.183 288.218 174.161 290.277 175.458 290.461C188.414 292.227 199.971 285.398 210.128 278.202C222.421 269.483 235.062 261.898 248.836 255.864C250.043 255.337 249.071 253.531 247.87 254.059L247.871 254.053Z" fill="#C3937C"/>
<path d="M253.747 252.374L225.56 274.672C217.039 281.409 208.513 288.552 197.414 290.186C196.109 290.372 196.589 292.368 197.89 292.174C207.796 290.718 215.784 284.946 223.482 278.9C234.057 270.594 244.578 262.217 255.128 253.876C256.163 253.055 254.764 251.562 253.734 252.37L253.747 252.374Z" fill="#C3937C"/>
<path d="M248.472 252.383C215.519 259.006 183.948 270.668 152.519 282.386C151.299 282.839 151.777 284.842 153.001 284.376C184.428 272.664 215.989 261.013 248.953 254.379C250.245 254.121 249.765 252.124 248.472 252.383Z" fill="#C3937C"/>
<path d="M298.815 242.627C281.949 238.728 266.488 230.453 252.529 220.358C239.838 211.158 228.446 200.376 214.816 192.48C213.678 191.819 212.581 193.553 213.724 194.223C227.905 202.443 239.68 213.805 253.007 223.231C266.716 232.897 281.799 240.824 298.212 244.621C299.502 244.921 300.094 242.959 298.805 242.659L298.815 242.627Z" fill="#C3937C"/>
<path d="M298.19 243.737C276.827 239.467 257.137 229.134 238.872 217.532C223.197 207.589 208.01 195.916 189.824 190.975C188.548 190.631 187.955 192.593 189.231 192.937C208.525 198.185 224.317 211.077 241.096 221.339C258.63 232.071 277.299 241.627 297.601 245.687C298.902 245.948 299.494 243.986 298.193 243.724L298.19 243.737Z" fill="#C3937C"/>
<path d="M294.584 244.458C266.232 239.182 240.84 225.931 215.538 212.639C214.375 212.032 213.273 213.764 214.439 214.379C239.891 227.751 265.455 241.116 293.989 246.426C295.294 246.675 295.887 244.713 294.582 244.464L294.584 244.458Z" fill="#C3937C"/>
<path d="M285.8 246.308C264.576 240.325 243.699 233.418 224.265 222.831C223.117 222.201 222.014 223.933 223.173 224.573C242.762 235.242 263.804 242.24 285.206 248.276C286.47 248.658 287.069 246.677 285.799 246.314L285.8 246.308Z" fill="#C3937C"/>
<path d="M298.529 241.471C278.773 231.152 260.278 219.922 244.138 204.369C243.193 203.455 241.69 204.845 242.635 205.759C258.893 221.424 277.528 232.806 297.433 243.205C298.595 243.811 299.696 242.085 298.531 241.464L298.529 241.471Z" fill="#C3937C"/>
<path d="M206.788 243.481C190.561 222.832 170.635 205.389 148.027 192.04C146.891 191.372 145.802 193.102 146.935 193.782C169.387 207.042 189.176 224.369 205.289 244.879C206.106 245.92 207.601 244.514 206.786 243.487L206.788 243.481Z" fill="#C3937C"/>
<path d="M207.07 243.414C191.736 230.733 175.19 219.595 157.671 210.162C156.517 209.53 155.42 211.264 156.573 211.903C173.941 221.245 190.352 232.27 205.57 244.819C206.567 245.652 208.076 244.264 207.067 243.427L207.07 243.414Z" fill="#C3937C"/>
<path d="M204.862 243.825C193.195 233.476 178.881 225.948 164.969 219.101C163.797 218.526 162.696 220.252 163.871 220.841C177.602 227.6 191.848 235.011 203.369 245.204C204.349 246.073 205.852 244.683 204.868 243.806L204.862 243.825Z" fill="#C3937C"/>
<path d="M208.534 243.159C195.369 222.785 179.019 204.316 159.602 189.7C158.551 188.906 157.466 190.65 158.51 191.442C177.616 205.854 193.738 224.095 206.722 244.158C207.432 245.257 209.239 244.297 208.525 243.19L208.534 243.159Z" fill="#C3937C"/>
<path d="M181.861 242.603C161.773 242.634 141.617 244.192 121.556 242.512C102.008 240.869 83.0978 235.24 64.5401 229.13C63.2755 228.748 62.7019 230.647 63.9493 231.086C81.9904 237.033 100.391 242.542 119.366 244.371C140.15 246.374 161.007 244.689 181.806 244.659C183.125 244.656 183.184 242.609 181.861 242.603Z" fill="#C3937C"/>
<path d="M179.301 243.108C163.967 243.504 148.972 247.07 133.671 247.974C117.655 248.95 101.608 246.703 86.478 241.365C85.2325 240.92 84.6398 242.882 85.8853 243.327C100.529 248.487 116.025 250.795 131.538 250.127C147.547 249.437 163.206 245.588 179.224 245.191C180.531 245.157 180.599 243.106 179.279 243.135L179.301 243.108Z" fill="#C3937C"/>
<path d="M182.99 243.068C172.074 246.479 160.944 249.163 149.673 251.101C137.66 253.226 125.532 254.681 113.492 251.915C112.201 251.621 111.608 253.584 112.9 253.877C124.005 256.423 135.165 255.546 146.316 253.741C158.896 251.756 171.314 248.854 183.473 245.058C184.717 244.661 184.252 242.662 182.992 243.062L182.99 243.068Z" fill="#C3937C"/>
<path d="M141.834 243.381C116.251 240.043 91.0437 234.279 66.5527 226.167C65.288 225.785 64.7145 227.684 65.96 228.13C90.6342 236.276 116.026 242.061 141.795 245.406C143.121 245.586 143.142 243.527 141.844 243.349L141.834 243.381Z" fill="#C3937C"/>
<path d="M161.821 242.863C145.236 237.943 128.46 233.705 111.602 229.849C97.6481 226.657 83.3217 222.689 68.8941 224.63C67.5928 224.803 68.0752 226.793 69.3764 226.62C84.7534 224.551 100.394 229.33 115.241 232.786C130.673 236.383 146.03 240.317 161.229 244.825C161.489 244.904 161.769 244.876 162.008 244.747C162.248 244.619 162.427 244.4 162.505 244.14C162.584 243.88 162.556 243.599 162.427 243.36C162.299 243.12 162.081 242.942 161.821 242.863Z" fill="#C3937C"/>
<path d="M173.748 241.914C142.395 232.982 111.231 221.228 78.2822 220.276C78.1474 220.272 78.0131 220.295 77.8871 220.343C77.7611 220.392 77.6459 220.465 77.548 220.557C77.4501 220.65 77.3714 220.762 77.3165 220.885C77.2615 221.008 77.2314 221.141 77.2278 221.276C77.2242 221.411 77.2472 221.546 77.2954 221.672C77.3437 221.798 77.4163 221.913 77.5091 222.011C77.6019 222.109 77.713 222.187 77.8362 222.242C77.9594 222.297 78.0922 222.327 78.2271 222.331C111 223.251 141.977 235.004 173.147 243.88C174.412 244.262 175.01 242.281 173.74 241.918L173.748 241.914Z" fill="#C3937C"/>
<path d="M102.151 200.693C77.4437 192.829 53.6186 183.188 30.7751 170.846C29.587 170.21 28.5221 171.954 29.6767 172.586C52.6688 185.008 76.674 194.738 101.556 202.661C102.821 203.043 103.408 201.1 102.149 200.699L102.151 200.693Z" fill="#C3937C"/>
<path d="M99.5092 200.689C79.1831 199.246 61.3956 191.021 43.39 182.101C42.1865 181.517 41.1173 183.252 42.2979 183.844C60.6214 192.922 78.7701 201.277 99.4561 202.738C100.773 202.832 100.818 200.788 99.5112 200.683L99.5092 200.689Z" fill="#C3937C"/>
<path d="M100.36 199.883C76.5691 184.988 51.0595 172.883 23.9639 165.321C22.6993 164.939 22.0989 166.926 23.3712 167.283C50.3024 174.796 75.6048 186.811 99.2511 201.613C99.4818 201.758 99.7606 201.805 100.026 201.744C100.292 201.683 100.522 201.519 100.667 201.288C100.812 201.057 100.859 200.777 100.798 200.512C100.738 200.246 100.574 200.015 100.343 199.87L100.36 199.883Z" fill="#C3937C"/>
<path d="M93.8933 199.843C81.0819 199.585 67.8138 197.574 55.9905 192.469C54.7679 191.948 54.1753 193.91 55.3978 194.431C67.3501 199.589 80.8928 201.628 93.8509 201.902C93.9859 201.905 94.1201 201.881 94.246 201.833C94.3719 201.784 94.487 201.711 94.5847 201.617C94.7821 201.429 94.8966 201.17 94.9031 200.897C94.9095 200.624 94.8074 200.36 94.6192 200.163C94.431 199.965 94.1722 199.851 93.8996 199.844L93.8933 199.843Z" fill="#C3937C"/>
<path d="M122.81 210.4C117.246 202.504 114.759 191.116 111.811 181.985C108.957 173.159 103.672 161.734 104.783 152.345C104.944 151.012 102.887 150.992 102.73 152.291C101.577 162.069 106.859 173.32 109.812 182.459C112.838 191.834 115.275 203.206 120.986 211.39C121.739 212.46 123.555 211.475 122.796 210.424L122.81 210.4Z" fill="#C3937C"/>
<path d="M123.041 210.228C119.071 189.607 121.849 163.916 104.33 148.52C103.349 147.657 101.846 149.047 102.833 149.912C120.042 165.056 117.137 190.39 121.04 210.708C121.291 212 123.284 211.524 123.034 210.226L123.041 210.228Z" fill="#C3937C"/>
<path d="M120.794 207.892C119.086 197.989 117.103 188.128 114.435 178.413C111.862 169.16 107.957 160.867 103.622 152.353C103.02 151.17 101.221 152.146 101.818 153.321C106.348 162.287 110.338 171.007 112.933 180.735C115.357 189.846 117.197 199.104 118.793 208.393C119.022 209.691 121.01 209.208 120.788 207.911L120.794 207.892Z" fill="#C3937C"/>
<path d="M48.8089 143.671C36.1777 132.949 23.2216 123.165 8.3818 115.574C7.21571 114.98 6.11922 116.714 7.28971 117.316C21.9779 124.792 34.7913 134.409 47.3196 145.038C48.313 145.883 49.8226 144.495 48.8165 143.646L48.8089 143.671Z" fill="#C3937C"/>
<path d="M46.3956 142.134C31.5368 134.438 17.2854 125.622 3.76446 115.761C2.70189 114.984 1.61614 116.728 2.67236 117.503C16.1951 127.361 30.4465 136.178 45.3037 143.876C46.466 144.483 47.5623 142.749 46.3956 142.134Z" fill="#C3937C"/>
<path d="M73.3641 167.319C71.0477 149.899 70.1989 132.314 70.8266 114.751C70.8775 113.44 68.8301 113.388 68.771 114.703C68.1468 132.44 69.0152 150.197 71.3669 167.787C71.5393 169.089 73.5277 168.605 73.3552 167.303L73.3641 167.319Z" fill="#C3937C"/>
<path d="M71.7121 164.541C66.9323 151.742 66.3362 138.936 66.2135 125.431C66.1973 124.113 64.1519 124.055 64.1598 125.377C64.2865 139.098 64.852 152.005 69.7053 165.04C70.1639 166.263 72.1649 165.783 71.6981 164.564L71.7121 164.541Z" fill="#C3937C"/>
<path d="M73.5555 166.32C74.736 149.071 77.329 129.727 73.8019 112.576C73.5042 111.277 71.543 111.762 71.8072 113.058C73.1965 119.88 73.1124 127.148 72.9828 134.133C72.7977 144.866 72.2341 155.595 71.4986 166.3C71.4007 167.652 73.4532 167.664 73.5522 166.354L73.5555 166.32Z" fill="#C3937C"/>
<path d="M39.3964 110.071C38.4319 96.4287 38.8125 82.7643 38.959 69.0982C38.9701 67.7823 36.9227 67.7303 36.9034 69.0506C36.7588 82.7104 36.3763 96.3811 37.3427 110.017C37.4379 111.324 39.4974 111.359 39.3964 110.071Z" fill="#C3937C"/>
<path d="M37.8784 110.78C36.2413 99.7524 36.4591 88.546 34.8157 77.5165C34.6224 76.2149 32.6339 76.6987 32.8272 78.0003C34.4643 89.0279 34.2465 100.234 35.8899 111.264C36.0832 112.565 38.078 112.084 37.8847 110.782L37.8784 110.78Z" fill="#C3937C"/>
<path d="M42.4433 98.338C40.8786 90.4059 40.3262 82.5032 42.5027 74.6581C42.8534 73.3827 40.8932 72.7906 40.5425 74.066C38.2881 82.2606 38.8182 90.5571 40.4569 98.8155C40.7147 100.109 42.7012 99.6315 42.4433 98.338Z" fill="#C3937C"/>
</svg>
